<?xml version="1.0" encoding="utf-8"?>
<!-- Generator: Adobe Illustrator 25.0.0, SVG Export Plug-In . SVG Version: 6.00 Build 0)  -->
<svg version="1.1" id="Layer_1" xmlns="http://www.w3.org/2000/svg" xmlns:xlink="http://www.w3.org/1999/xlink" x="0px" y="0px"
	 viewBox="0 0 89.3 70.1" style="enable-background:new 0 0 89.3 70.1;" xml:space="preserve">
<style type="text/css">
	.st0{fill:none;}
	.st1{fill:none;stroke:#2A722D;stroke-width:2.9395;}
	.st2{fill:#2A722D;}
	.st3{enable-background:new    ;}
	.st4{fill:none;stroke:#000000;stroke-width:3;stroke-miterlimit:10;}
	.st5{fill:#F57256;}
	.st6{fill:#F6A592;}
	.st7{fill:#F7CFC3;}
	.st8{fill:#F7F7F2;}
	.st9{fill:#ADE291;}
	.st10{fill:#EF5C48;}
</style>
<g id="Group_1_3_" transform="translate(-148 -63)">
	<g id="Component_1_3_3_" transform="translate(148 63)">
		<g id="Ellipse_2_3_">
			<g>
				<circle class="st0" cx="44.7" cy="18.6" r="17.6"/>
			</g>
			<g>
				<path class="st2" d="M44.7,36.3c-9.7,0-17.6-7.9-17.6-17.6C27,8.9,34.9,1,44.7,1c9.7,0,17.6,7.9,17.6,17.6
					C62.3,28.4,54.4,36.3,44.7,36.3z M44.7,3.9C36.6,3.9,30,10.5,30,18.6s6.6,14.7,14.7,14.7s14.7-6.6,14.7-14.7S52.8,3.9,44.7,3.9z
					"/>
			</g>
		</g>
		<g id="Path_1_4_">
			<path class="st2" d="M44.7,18.6c6.5,0,11.8-6.5,11.8,0c0,6.5-5.3,11.8-11.8,11.8s-11.8-5.3-11.8-11.8
				C32.9,12.1,38.2,18.6,44.7,18.6z"/>
		</g>
	</g>
	<g class="st3">
		<g>
			<path class="st2" d="M149,111.2h3v11.7h0.3l6.2-6.5h3.6l-6.3,6.6l6.7,8.8h-3.7l-5.3-7l-1.5,1.5v5.5h-3V111.2z"/>
		</g>
		<g>
			<path class="st2" d="M164,127.4c0-3.5,3-4.3,5.9-4.6c2.8-0.3,3.9-0.3,3.9-1.4v-0.1c0-1.8-1-2.8-2.9-2.8c-2,0-3.2,1.1-3.6,2.2
				l-2.8-0.6c1-2.8,3.6-3.9,6.4-3.9c2.5,0,6,0.9,6,5.4v10.3H174v-2.1h-0.1c-0.6,1.2-2,2.5-4.6,2.5C166.3,132.1,164,130.5,164,127.4z
				 M173.9,126.2v-2c-0.4,0.4-2.8,0.7-3.7,0.8c-1.7,0.2-3.2,0.8-3.2,2.4c0,1.5,1.2,2.3,2.9,2.3C172.4,129.7,173.9,128,173.9,126.2z"
				/>
		</g>
		<g>
			<path class="st2" d="M189.8,120.6c-0.4-1-1.2-2.1-3.1-2.1c-1.7,0-3,0.8-3,2c0,1,0.7,1.6,2.4,2l2.5,0.6c2.8,0.7,4.2,2,4.2,4.2
				c0,2.8-2.6,4.8-6.3,4.8c-3.5,0-5.8-1.5-6.3-4.3l2.9-0.4c0.4,1.5,1.5,2.3,3.3,2.3c2,0,3.3-0.9,3.3-2.1c0-1-0.7-1.6-2.2-2l-2.6-0.6
				c-2.9-0.6-4.2-2.1-4.2-4.3c0-2.7,2.5-4.6,6-4.6c3.3,0,5.2,1.6,5.9,4L189.8,120.6z"/>
		</g>
		<g>
			<path class="st2" d="M203.3,118.7h-3.2v8.5c0,1.7,0.9,2.1,1.9,2.1c0.5,0,0.9-0.1,1.1-0.1l0.5,2.5c-0.4,0.1-1,0.3-2,0.3
				c-2.4,0-4.5-1.3-4.5-4.1v-9.1h-2.3v-2.4h2.3v-3.7h3v3.7h3.2V118.7z"/>
		</g>
		<g>
			<path class="st2" d="M205.8,124.1c0-5,2.8-8,6.5-8c2.9,0,3.9,1.8,4.5,2.7h0.2v-7.7h3v20.6H217v-2.4h-0.3c-0.5,1-1.7,2.7-4.5,2.7
				C208.5,132.1,205.8,129.1,205.8,124.1z M217,124c0-3.2-1.4-5.4-4-5.4c-2.7,0-4.1,2.3-4.1,5.4c0,3.1,1.4,5.5,4.1,5.5
				C215.5,129.5,217,127.3,217,124z"/>
		</g>
		<g>
			<path class="st2" d="M223.5,127.4c0-3.5,3-4.3,5.9-4.6c2.8-0.3,3.9-0.3,3.9-1.4v-0.1c0-1.8-1-2.8-2.9-2.8c-2,0-3.2,1.1-3.6,2.2
				l-2.8-0.6c1-2.8,3.6-3.9,6.4-3.9c2.5,0,6,0.9,6,5.4v10.3h-2.9v-2.1h-0.1c-0.6,1.2-2,2.5-4.6,2.5
				C225.8,132.1,223.5,130.5,223.5,127.4z M233.3,126.2v-2c-0.4,0.4-2.8,0.7-3.7,0.8c-1.7,0.2-3.2,0.8-3.2,2.4
				c0,1.5,1.2,2.3,2.9,2.3C231.9,129.7,233.3,128,233.3,126.2z"/>
		</g>
	</g>
</g>
</svg>
